<svg width="48" height="50" viewBox="0 0 48 50" fill="none" xmlns="http://www.w3.org/2000/svg">
<path d="M37.4445 10.9943H18L23.0311 0H33.4392C36.1881 0 38.2225 2.20683 37.9805 4.92689L37.4445 11V10.9943Z" fill="#96D4EA"/>
<path d="M21.7861 41.3102C26.526 46.2156 33.0752 49.3933 40.5723 49.9191L45.5029 38.8547H43.763C36.9537 38.8547 31.2023 35.5209 27.9191 30.396H31.6589C39.7341 30.396 46.8786 23.8324 47.5838 15.7609L48 11H36.8555L36.4393 15.7609C36.2717 17.6849 34.5665 19.2564 32.6358 19.2564H24.9826H13.8382C13.8382 19.2911 13.8382 19.3258 13.8382 19.3604L12.4335 35.3649C12.2659 37.2889 10.5665 38.8489 8.63006 38.8489H4.97109L0 50H7.65318C13.6127 50 19.0578 46.4236 21.7919 41.3102" fill="#004581"/>
</svg>
